<svg height="480pt" viewBox="0 0 480 480" width="480pt" xmlns="http://www.w3.org/2000/svg"><link xmlns="" type="text/css" id="dark-mode" rel="stylesheet" href=""/><style xmlns="" type="text/css" id="dark-mode-custom-style"/><path d="m440 0h-400c-22.082031.0273438-39.9726562 17.917969-40 40v320c0 13.253906 10.746094 24 24 24h168v48h-32c-13.253906 0-24 10.746094-24 24s10.746094 24 24 24h160c13.253906 0 24-10.746094 24-24s-10.746094-24-24-24h-32v-48h168c13.253906 0 24-10.746094 24-24v-320c-.027344-22.082031-17.917969-39.9726562-40-40zm-424 40c0-13.253906 10.746094-24 24-24h400c13.253906 0 24 10.746094 24 24v264h-448zm312 416c0 4.417969-3.582031 8-8 8h-160c-4.417969 0-8-3.582031-8-8s3.582031-8 8-8h160c4.417969 0 8 3.582031 8 8zm-56-24h-64v-48h64zm192-72c0 4.417969-3.582031 8-8 8h-432c-4.417969 0-8-3.582031-8-8v-40h448zm0 0"/><path d="m440 32h-400c-4.417969 0-8 3.582031-8 8v240c0 4.417969 3.582031 8 8 8h400c4.417969 0 8-3.582031 8-8v-240c0-4.417969-3.582031-8-8-8zm-8 240h-384v-224h384zm0 0"/><path d="m104 200h40v24c0 4.417969 3.582031 8 8 8s8-3.582031 8-8v-24h16c4.417969 0 8-3.582031 8-8s-3.582031-8-8-8h-16v-88c0-4.417969-3.582031-8-8-8s-8 3.582031-8 8v88h-40c-4.175781.015625-7.65625-3.183594-8-7.34375l15.839844-79.054688c.671875-2.847656-.261719-5.832031-2.4375-7.789062-2.171875-1.953125-5.238282-2.566406-8-1.597656-2.757813.96875-4.769532 3.363281-5.242188 6.25l-16 80c-.101562.503906-.15625 1.019531-.160156 1.535156 0 13.253906 10.746094 24 24 24zm0 0"/><path d="m216 232h48c13.253906 0 24-10.746094 24-24v-96c0-13.253906-10.746094-24-24-24h-48c-13.253906 0-24 10.746094-24 24v96c0 13.253906 10.746094 24 24 24zm-8-120c0-4.417969 3.582031-8 8-8h48c4.417969 0 8 3.582031 8 8v96c0 4.417969-3.582031 8-8 8h-48c-4.417969 0-8-3.582031-8-8zm0 0"/><path d="m328 200h40v24c0 4.417969 3.582031 8 8 8s8-3.582031 8-8v-24h16c4.417969 0 8-3.582031 8-8s-3.582031-8-8-8h-16v-88c0-4.417969-3.582031-8-8-8s-8 3.582031-8 8v88h-40c-4.175781.015625-7.65625-3.183594-8-7.34375l15.839844-79.054688c.699218-4.253906-2.097656-8.296874-6.324219-9.144531-4.226563-.84375-8.363281 1.8125-9.355469 6.007813l-16 80c-.101562.503906-.15625 1.019531-.160156 1.535156 0 13.253906 10.746094 24 24 24zm0 0"/><style xmlns="">@namespace url(http://www.w3.org/1999/xhtml);
/* This css globally creates "glow" around the currently focused and/or hovered form element for better usability
    *  when dealing with form input
    *
    *  Changelog
    *  - 0.1.0 (initial release): Simple orange shiny shade
    *  - 0.1.1: Color changed to green, a little more complex behaviour, code cleanup
    *  - 0.1.2: Buttons highlighted with stronger border, not colored background when active/focused
    *  - 0.1.3: More stronger colorization, to have a stronger visual cue. Cleanup.
    */
/***********************************
    * Modifications for highlighting the focused and hovered text area
    * - Adds some "shadow glow" to visualize the outline of a hovered input
    * - Adds some "outline glow" to clearly show the currently focused input
    ************************************/
/* Select general focused inputs, but also more specific ones, to have a stronger css selector */

select:focus,
a:focus,
input:focus,
textarea:focus,
input[type="button"]:focus,
input[type="submit"]:focus,
input[type="text"]:focus,
input[type="password"]:focus,
input[type="datetime"]:focus,
input[type="datetime-local"]:focus,
input[type="date"]:focus,
input[type="month"]:focus,
input[type="time"]:focus,
input[type="week"]:focus,
input[type="number"]:focus,
input[type="email"]:focus,
input[type="url"]:focus,
input[type="search"]:focus,
input[type="tel"]:focus,
input[type="color"]:focus {
    outline: rgba(0, 222, 26, 0.7) solid 4px !important;
    outline-offset: 1px !important;
}
/* Select general hovered inputs, but also more specific ones, to have a stronger css selector */

select:hover,
a:hover,
input:hover,
textarea:hover,
input[type="text"]:hover,
input[type="password"]:hover,
input[type="datetime"]:hover,
input[type="datetime-local"]:hover,
input[type="date"]:hover,
input[type="month"]:hover,
input[type="time"]:hover,
input[type="week"]:hover,
input[type="number"]:hover,
input[type="email"]:hover,
input[type="url"]:hover,
input[type="search"]:hover,
input[type="tel"]:hover,
input[type="color"]:hover {  
    -webkit-box-shadow: 0px 0px 12px 6px rgba(0, 222, 26, 0.5), inset 0 0 10000px rgba(0, 222, 26, 0.1) !important;
    -moz-box-shadow: 0px 0px 12px 6px rgba(0, 222, 26, 0.5), inset 0 0 10000px rgba(0, 222, 26, 0.1) !important;
    box-shadow: 0px 0px 12px 6px rgba(0, 222, 26, 0.5), inset 0 0 10000px rgba(0, 222, 26, 0.1) !important;
}</style></svg>